<mxfile host="app.diagrams.net" modified="2024-04-03T14:40:38.553Z" agent="Mozilla/5.0 (Windows NT 10.0; Win64; x64) AppleWebKit/537.36 (KHTML, like Gecko) Chrome/123.0.0.0 Safari/537.36 Edg/123.0.0.0" etag="IKNWEVkbXFhLlHkda7E-" version="24.2.1" type="github">
  <diagram name="Page-1" id="4fc8d65c-f3f6-feb3-4d1c-02f59d9f9886">
    <mxGraphModel dx="664" dy="1910" grid="1" gridSize="10" guides="1" tooltips="1" connect="1" arrows="1" fold="1" page="1" pageScale="1" pageWidth="826" pageHeight="1169" background="none" math="0" shadow="0">
      <root>
        <mxCell id="0" />
        <mxCell id="1" parent="0" />
        <mxCell id="8" value="Sistem Permesanan&#xa;Pujasera" style="whiteSpace=wrap;strokeWidth=3" parent="1" vertex="1">
          <mxGeometry x="890" y="250.97" width="120" height="60" as="geometry" />
        </mxCell>
        <mxCell id="9" value="" style="edgeStyle=none;strokeWidth=4" parent="1" target="8" edge="1">
          <mxGeometry width="100" height="100" relative="1" as="geometry">
            <mxPoint x="450" y="280" as="sourcePoint" />
            <mxPoint x="240" y="230" as="targetPoint" />
          </mxGeometry>
        </mxCell>
        <mxCell id="204" value="Proses" style="whiteSpace=wrap;strokeWidth=2" parent="1" vertex="1">
          <mxGeometry x="543.8933333333331" y="-0.0022222222224854704" width="120" height="60" as="geometry" />
        </mxCell>
        <mxCell id="205" value="Roles" style="whiteSpace=wrap;strokeWidth=2" parent="1" vertex="1">
          <mxGeometry x="450.1333333333331" y="479.9977777777775" width="120" height="60" as="geometry" />
        </mxCell>
        <mxCell id="206" value="" style="edgeStyle=none;exitX=0.5;exitY=1;strokeWidth=3" parent="1" source="204" edge="1">
          <mxGeometry width="100" height="100" relative="1" as="geometry">
            <mxPoint x="535.8333333333331" y="191.52777777777752" as="sourcePoint" />
            <mxPoint x="595.8333333333331" y="281.52777777777754" as="targetPoint" />
          </mxGeometry>
        </mxCell>
        <mxCell id="207" value="" style="edgeStyle=none;exitX=0.538;exitY=-0.014;strokeWidth=3;exitDx=0;exitDy=0;exitPerimeter=0;" parent="1" edge="1" source="205">
          <mxGeometry width="100" height="100" relative="1" as="geometry">
            <mxPoint x="535.8333333333333" y="401.52777777777754" as="sourcePoint" />
            <mxPoint x="595.8333333333331" y="281.52777777777754" as="targetPoint" />
          </mxGeometry>
        </mxCell>
        <mxCell id="208" value="" style="edgeStyle=none;endArrow=none;strokeWidth=2" parent="1" edge="1">
          <mxGeometry width="100" height="100" relative="1" as="geometry">
            <mxPoint x="530.8333333333333" y="149.99777777777751" as="sourcePoint" />
            <mxPoint x="590.8333333333331" y="149.99777777777751" as="targetPoint" />
          </mxGeometry>
        </mxCell>
        <mxCell id="210" value="" style="edgeStyle=none;endArrow=none;strokeWidth=2" parent="1" edge="1">
          <mxGeometry width="100" height="100" relative="1" as="geometry">
            <mxPoint x="510" y="210" as="sourcePoint" />
            <mxPoint x="600.4133333333333" y="209.59777777777754" as="targetPoint" />
          </mxGeometry>
        </mxCell>
        <mxCell id="211" value="" style="edgeStyle=none;endArrow=none;strokeWidth=2" parent="1" edge="1">
          <mxGeometry width="100" height="100" relative="1" as="geometry">
            <mxPoint x="590.8333333333331" y="149.99777777777751" as="sourcePoint" />
            <mxPoint x="720" y="150" as="targetPoint" />
          </mxGeometry>
        </mxCell>
        <mxCell id="214" value="" style="edgeStyle=none;endArrow=none;strokeWidth=2" parent="1" edge="1">
          <mxGeometry width="100" height="100" relative="1" as="geometry">
            <mxPoint x="426.94" y="331.97" as="sourcePoint" />
            <mxPoint x="572.7733333333333" y="331.93777777777757" as="targetPoint" />
          </mxGeometry>
        </mxCell>
        <mxCell id="216" value="" style="edgeStyle=none;endArrow=none;strokeWidth=2" parent="1" edge="1">
          <mxGeometry width="100" height="100" relative="1" as="geometry">
            <mxPoint x="280" y="450" as="sourcePoint" />
            <mxPoint x="525.4133333333332" y="449.7977777777775" as="targetPoint" />
          </mxGeometry>
        </mxCell>
        <mxCell id="218" value="" style="edgeStyle=none;endArrow=none;strokeWidth=2" parent="1" edge="1">
          <mxGeometry width="100" height="100" relative="1" as="geometry">
            <mxPoint x="572.7733333333331" y="330.96777777777754" as="sourcePoint" />
            <mxPoint x="780" y="330" as="targetPoint" />
          </mxGeometry>
        </mxCell>
        <mxCell id="219" value="" style="edgeStyle=none;endArrow=none;strokeWidth=2" parent="1" edge="1">
          <mxGeometry width="100" height="100" relative="1" as="geometry">
            <mxPoint x="520.8333333333331" y="449.7977777777775" as="sourcePoint" />
            <mxPoint x="680" y="450" as="targetPoint" />
          </mxGeometry>
        </mxCell>
        <mxCell id="220" value="" style="edgeStyle=none;endArrow=none;" parent="1" edge="1">
          <mxGeometry width="100" height="100" relative="1" as="geometry">
            <mxPoint x="560.833333333333" y="169.9977777777774" as="sourcePoint" />
            <mxPoint x="580.8333333333333" y="149.99777777777751" as="targetPoint" />
          </mxGeometry>
        </mxCell>
        <mxCell id="221" value="" style="edgeStyle=none;endArrow=none;" parent="1" edge="1">
          <mxGeometry width="100" height="100" relative="1" as="geometry">
            <mxPoint x="518.8933333333332" y="169.9977777777774" as="sourcePoint" />
            <mxPoint x="538.893333333333" y="149.99777777777751" as="targetPoint" />
          </mxGeometry>
        </mxCell>
        <mxCell id="222" value="" style="edgeStyle=none;endArrow=none;" parent="1" edge="1">
          <mxGeometry width="100" height="100" relative="1" as="geometry">
            <mxPoint x="518.8933333333331" y="228.88777777777753" as="sourcePoint" />
            <mxPoint x="538.893333333333" y="208.8877777777775" as="targetPoint" />
          </mxGeometry>
        </mxCell>
        <mxCell id="223" value="" style="edgeStyle=none;endArrow=none;" parent="1" edge="1">
          <mxGeometry width="100" height="100" relative="1" as="geometry">
            <mxPoint x="540.8333333333331" y="149.99777777777754" as="sourcePoint" />
            <mxPoint x="560.8333333333331" y="129.99777777777751" as="targetPoint" />
          </mxGeometry>
        </mxCell>
        <mxCell id="224" value="" style="edgeStyle=none;endArrow=none;" parent="1" edge="1">
          <mxGeometry width="100" height="100" relative="1" as="geometry">
            <mxPoint x="690.0010802469135" y="169.9973765432096" as="sourcePoint" />
            <mxPoint x="710.0010802469134" y="149.9973765432095" as="targetPoint" />
          </mxGeometry>
        </mxCell>
        <mxCell id="225" value="" style="edgeStyle=none;endArrow=none;" parent="1" edge="1">
          <mxGeometry width="100" height="100" relative="1" as="geometry">
            <mxPoint x="616.6710802469133" y="169.9973765432096" as="sourcePoint" />
            <mxPoint x="636.32" y="150.1" as="targetPoint" />
          </mxGeometry>
        </mxCell>
        <mxCell id="226" value="" style="edgeStyle=none;endArrow=none;" parent="1" edge="1">
          <mxGeometry width="100" height="100" relative="1" as="geometry">
            <mxPoint x="635.4210802469133" y="149.99737654320938" as="sourcePoint" />
            <mxPoint x="655.4210802469133" y="129.9973765432096" as="targetPoint" />
          </mxGeometry>
        </mxCell>
        <mxCell id="228" value="" style="edgeStyle=none;endArrow=none;" parent="1" edge="1">
          <mxGeometry width="100" height="100" relative="1" as="geometry">
            <mxPoint x="616.6633333333333" y="449.9977777777775" as="sourcePoint" />
            <mxPoint x="636.6633333333332" y="429.9977777777775" as="targetPoint" />
          </mxGeometry>
        </mxCell>
        <mxCell id="229" value="" style="edgeStyle=none;endArrow=none;" parent="1" edge="1">
          <mxGeometry width="100" height="100" relative="1" as="geometry">
            <mxPoint x="565.8333333333331" y="449.9977777777775" as="sourcePoint" />
            <mxPoint x="585.8333333333331" y="429.9977777777775" as="targetPoint" />
          </mxGeometry>
        </mxCell>
        <mxCell id="237" value="Proses pemesanan " style="text;spacingTop=-5;fontSize=8;align=center;verticalAlign=middle;points=[]" parent="1" vertex="1">
          <mxGeometry x="475.8333333333331" y="139.99777777777757" width="30" height="19.999999999999886" as="geometry" />
        </mxCell>
        <mxCell id="243" value="Pembeli langsung&#xa; menuju mesin&#xa; yang untuk memesan." style="text;spacingTop=-5;fontSize=6;align=center;verticalAlign=middle;points=[]" parent="1" vertex="1">
          <mxGeometry x="450.13000000000005" y="170" width="75.28" height="20" as="geometry" />
        </mxCell>
        <mxCell id="244" value="Pembeli memilih menu&#xa;yang tertera di mesin" style="text;spacingTop=-5;fontSize=6;align=center;verticalAlign=middle;points=[]" parent="1" vertex="1">
          <mxGeometry x="543.8933333333331" y="169.99777777777751" width="30" height="19.999999999999886" as="geometry" />
        </mxCell>
        <mxCell id="245" value="Ketika makanan sudah &#xa;selesai, wireless calling &#xa;system bergetar." style="text;spacingTop=-5;fontSize=6;align=center;verticalAlign=middle;points=[]" parent="1" vertex="1">
          <mxGeometry x="462.78" y="230" width="51.11" height="20" as="geometry" />
        </mxCell>
        <mxCell id="246" value="Pembeli dapat mengambil&#xa;makanan di stan makanan&#xa;yang mereka beli" style="text;spacingTop=-5;fontSize=6;align=center;verticalAlign=middle;points=[]" parent="1" vertex="1">
          <mxGeometry x="543.8888888888886" y="229.99555555555537" width="30" height="19.999999999999886" as="geometry" />
        </mxCell>
        <mxCell id="251" value="Pembeli menuju&#xa; kasir dengan&#xa;membaca struk&#xa; pembayaran" style="text;spacingTop=-5;fontSize=6;align=center;verticalAlign=middle;points=[]" parent="1" vertex="1">
          <mxGeometry x="612.221111111111" y="179.99666666666633" width="30" height="19.999999999999886" as="geometry" />
        </mxCell>
        <mxCell id="252" value="Mesin mencetak&#xa;struk pembayaran" style="text;spacingTop=-5;fontSize=6;align=center;verticalAlign=middle;points=[]" parent="1" vertex="1">
          <mxGeometry x="548.8911111111106" y="109.99666666666644" width="30" height="19.999999999999886" as="geometry" />
        </mxCell>
        <mxCell id="254" value="Pembali membayar &#xa;sebesar uang yang &#xa;tertera di struk" style="text;spacingTop=-5;fontSize=6;align=center;verticalAlign=middle;points=[]" parent="1" vertex="1">
          <mxGeometry x="675.4122222222219" y="179.99666666666644" width="30" height="19.999999999999886" as="geometry" />
        </mxCell>
        <mxCell id="257" value="Megkonfirmasi Pembayaran." style="text;spacingTop=-5;fontSize=6;align=center;verticalAlign=middle;points=[]" parent="1" vertex="1">
          <mxGeometry x="649.9966666666666" y="410.0044444444442" width="30" height="19.999999999999886" as="geometry" />
        </mxCell>
        <mxCell id="258" value="Masuk kedalam sistem" style="text;spacingTop=-5;fontSize=6;align=center;verticalAlign=middle;points=[]" parent="1" vertex="1">
          <mxGeometry x="570.1366666666664" y="410.0044444444443" width="30" height="19.999999999999886" as="geometry" />
        </mxCell>
        <mxCell id="259" value="Proses Pembayaran" style="text;spacingTop=-5;fontSize=8;align=center;verticalAlign=middle;points=[]" parent="1" vertex="1">
          <mxGeometry x="759.9966666666666" y="139.9999999999998" width="30" height="19.999999999999886" as="geometry" />
        </mxCell>
        <mxCell id="261" value="Food Delivery&#xa;Process" style="text;spacingTop=-5;fontSize=8;align=center;verticalAlign=middle;points=[]" parent="1" vertex="1">
          <mxGeometry x="465.8366666666665" y="200.96777777777743" width="30" height="19.999999999999886" as="geometry" />
        </mxCell>
        <mxCell id="262" value="Administrator" style="text;spacingTop=-5;fontSize=8;align=center;verticalAlign=middle;points=[]" parent="1" vertex="1">
          <mxGeometry x="795.9966666666667" y="320" width="30" height="19.999999999999886" as="geometry" />
        </mxCell>
        <mxCell id="263" value="Customer" style="text;spacingTop=-5;fontSize=8;align=center;verticalAlign=middle;points=[]" parent="1" vertex="1">
          <mxGeometry x="236.04666666666634" y="439.99999999999966" width="30" height="19.999999999999886" as="geometry" />
        </mxCell>
        <mxCell id="264" value="Kasir Terpusat" style="text;spacingTop=-5;fontSize=8;align=center;verticalAlign=middle;points=[]" parent="1" vertex="1">
          <mxGeometry x="705.4166666666664" y="450" width="30" height="19.999999999999886" as="geometry" />
        </mxCell>
        <mxCell id="gh2Hhw6dgfaFf8n6rs0p-270" value="Pihak kasir akan &#xa;memberikan wireless &#xa;calling system" style="text;spacingTop=-5;fontSize=6;align=center;verticalAlign=middle;points=[]" vertex="1" parent="1">
          <mxGeometry x="645.4211111111106" y="109.99666666666644" width="30" height="19.999999999999886" as="geometry" />
        </mxCell>
        <mxCell id="gh2Hhw6dgfaFf8n6rs0p-272" value="" style="edgeStyle=none;endArrow=none;" edge="1" parent="1">
          <mxGeometry width="100" height="100" relative="1" as="geometry">
            <mxPoint x="565.4133333333331" y="228.88777777777753" as="sourcePoint" />
            <mxPoint x="585.413333333333" y="208.8877777777775" as="targetPoint" />
          </mxGeometry>
        </mxCell>
        <mxCell id="gh2Hhw6dgfaFf8n6rs0p-273" value="Pihak Stan" style="text;spacingTop=-5;fontSize=8;align=center;verticalAlign=middle;points=[]" vertex="1" parent="1">
          <mxGeometry x="386.52666666666653" y="320.97" width="30" height="19.999999999999886" as="geometry" />
        </mxCell>
        <mxCell id="gh2Hhw6dgfaFf8n6rs0p-274" value="" style="edgeStyle=none;endArrow=none;" edge="1" parent="1">
          <mxGeometry width="100" height="100" relative="1" as="geometry">
            <mxPoint x="440" y="350" as="sourcePoint" />
            <mxPoint x="477.07333333333315" y="310.96777777777754" as="targetPoint" />
          </mxGeometry>
        </mxCell>
        <mxCell id="gh2Hhw6dgfaFf8n6rs0p-275" value="" style="edgeStyle=none;endArrow=none;" edge="1" parent="1">
          <mxGeometry width="100" height="100" relative="1" as="geometry">
            <mxPoint x="400" y="470" as="sourcePoint" />
            <mxPoint x="439.58333333333314" y="430.0077777777775" as="targetPoint" />
          </mxGeometry>
        </mxCell>
        <mxCell id="gh2Hhw6dgfaFf8n6rs0p-276" value="" style="edgeStyle=none;endArrow=none;" edge="1" parent="1">
          <mxGeometry width="100" height="100" relative="1" as="geometry">
            <mxPoint x="350" y="470" as="sourcePoint" />
            <mxPoint x="389.58333333333314" y="430.0077777777775" as="targetPoint" />
          </mxGeometry>
        </mxCell>
        <mxCell id="gh2Hhw6dgfaFf8n6rs0p-277" value="" style="edgeStyle=none;endArrow=none;" edge="1" parent="1">
          <mxGeometry width="100" height="100" relative="1" as="geometry">
            <mxPoint x="293.47" y="470" as="sourcePoint" />
            <mxPoint x="333.05333333333317" y="430.0077777777775" as="targetPoint" />
          </mxGeometry>
        </mxCell>
        <mxCell id="gh2Hhw6dgfaFf8n6rs0p-278" value="Menginput nama&#xa; pengguna  untuk &#xa;memulai pemesanan" style="text;spacingTop=-5;fontSize=6;align=center;verticalAlign=middle;points=[]" vertex="1" parent="1">
          <mxGeometry x="429.5866666666664" y="410.0044444444443" width="30" height="19.999999999999886" as="geometry" />
        </mxCell>
        <mxCell id="gh2Hhw6dgfaFf8n6rs0p-279" value="Menginput nama &#xa;pengguna &#xa;untuk memulai&#xa; pemesanan" style="text;spacingTop=-5;fontSize=6;align=center;verticalAlign=middle;points=[]" vertex="1" parent="1">
          <mxGeometry x="389.5866666666664" y="479.9944444444443" width="30" height="19.999999999999886" as="geometry" />
        </mxCell>
        <mxCell id="gh2Hhw6dgfaFf8n6rs0p-280" value="Melakukan Proses &#xa;Pemesanan" style="text;spacingTop=-5;fontSize=6;align=center;verticalAlign=middle;points=[]" vertex="1" parent="1">
          <mxGeometry x="333.0566666666664" y="470.0044444444443" width="30" height="19.999999999999886" as="geometry" />
        </mxCell>
        <mxCell id="gh2Hhw6dgfaFf8n6rs0p-281" value="Memilih menu&#xa; pemesanan" style="text;spacingTop=-5;fontSize=6;align=center;verticalAlign=middle;points=[]" vertex="1" parent="1">
          <mxGeometry x="268.0566666666664" y="470.0044444444443" width="30" height="19.999999999999886" as="geometry" />
        </mxCell>
        <mxCell id="gh2Hhw6dgfaFf8n6rs0p-282" value="memasukkan jumlah &#xa;pesanan" style="text;spacingTop=-5;fontSize=6;align=center;verticalAlign=middle;points=[]" vertex="1" parent="1">
          <mxGeometry x="489.9966666666664" y="410.0044444444443" width="30" height="19.999999999999886" as="geometry" />
        </mxCell>
        <mxCell id="gh2Hhw6dgfaFf8n6rs0p-283" value="Melihat detail &#xa;pembayaran" style="text;spacingTop=-5;fontSize=6;align=center;verticalAlign=middle;points=[]" vertex="1" parent="1">
          <mxGeometry x="319.9966666666664" y="410.0044444444443" width="30" height="19.999999999999886" as="geometry" />
        </mxCell>
        <mxCell id="gh2Hhw6dgfaFf8n6rs0p-284" value="" style="edgeStyle=none;endArrow=none;" edge="1" parent="1">
          <mxGeometry width="100" height="100" relative="1" as="geometry">
            <mxPoint x="475.83333333333314" y="449.99777777777757" as="sourcePoint" />
            <mxPoint x="495.83333333333314" y="429.99777777777757" as="targetPoint" />
          </mxGeometry>
        </mxCell>
        <mxCell id="gh2Hhw6dgfaFf8n6rs0p-285" value="Memberikan &#xa;feedback" style="text;spacingTop=-5;fontSize=6;align=center;verticalAlign=middle;points=[]" vertex="1" parent="1">
          <mxGeometry x="371.38666666666643" y="410.0044444444443" width="30" height="19.999999999999886" as="geometry" />
        </mxCell>
        <mxCell id="gh2Hhw6dgfaFf8n6rs0p-286" value="" style="edgeStyle=none;endArrow=none;" edge="1" parent="1">
          <mxGeometry width="100" height="100" relative="1" as="geometry">
            <mxPoint x="590.0033333333331" y="345.96777777777754" as="sourcePoint" />
            <mxPoint x="617.78" y="315.97" as="targetPoint" />
          </mxGeometry>
        </mxCell>
        <mxCell id="gh2Hhw6dgfaFf8n6rs0p-287" value="Masuk kedalam sistem" style="text;spacingTop=-5;fontSize=6;align=center;verticalAlign=middle;points=[]" vertex="1" parent="1">
          <mxGeometry x="588.8966666666664" y="345.41444444444426" width="30" height="19.999999999999886" as="geometry" />
        </mxCell>
        <mxCell id="gh2Hhw6dgfaFf8n6rs0p-288" value="Masukkan data &#xa;pihak stan" style="text;spacingTop=-5;fontSize=6;align=center;verticalAlign=middle;points=[]" vertex="1" parent="1">
          <mxGeometry x="609.9966666666664" y="300.41444444444426" width="30" height="19.999999999999886" as="geometry" />
        </mxCell>
        <mxCell id="gh2Hhw6dgfaFf8n6rs0p-289" value="" style="edgeStyle=none;endArrow=none;" edge="1" parent="1">
          <mxGeometry width="100" height="100" relative="1" as="geometry">
            <mxPoint x="670.0033333333331" y="345.96777777777754" as="sourcePoint" />
            <mxPoint x="697.78" y="315.97" as="targetPoint" />
          </mxGeometry>
        </mxCell>
        <mxCell id="gh2Hhw6dgfaFf8n6rs0p-290" value="Menampilkan daftar&#xa; menu pesanan" style="text;spacingTop=-5;fontSize=6;align=center;verticalAlign=middle;points=[]" vertex="1" parent="1">
          <mxGeometry x="649.9966666666664" y="345.41444444444426" width="30" height="19.999999999999886" as="geometry" />
        </mxCell>
        <mxCell id="gh2Hhw6dgfaFf8n6rs0p-291" value="Mengelola &#xa;pengecekan &#xa;pada pihak stan" style="text;spacingTop=-5;fontSize=6;align=center;verticalAlign=middle;points=[]" vertex="1" parent="1">
          <mxGeometry x="675.4166666666664" y="300.41444444444426" width="30" height="19.999999999999886" as="geometry" />
        </mxCell>
        <mxCell id="gh2Hhw6dgfaFf8n6rs0p-293" value="" style="edgeStyle=none;endArrow=none;" edge="1" parent="1">
          <mxGeometry width="100" height="100" relative="1" as="geometry">
            <mxPoint x="739.9933333333333" y="348.33777777777755" as="sourcePoint" />
            <mxPoint x="759.9933333333332" y="328.33777777777755" as="targetPoint" />
          </mxGeometry>
        </mxCell>
        <mxCell id="gh2Hhw6dgfaFf8n6rs0p-294" value="Mengelola Pengecekan&#xa;Pemesanan Pelanggan" style="text;spacingTop=-5;fontSize=6;align=center;verticalAlign=middle;points=[]" vertex="1" parent="1">
          <mxGeometry x="719.9966666666664" y="345.41444444444426" width="30" height="19.999999999999886" as="geometry" />
        </mxCell>
        <mxCell id="gh2Hhw6dgfaFf8n6rs0p-295" value="" style="edgeStyle=none;endArrow=none;" edge="1" parent="1">
          <mxGeometry width="100" height="100" relative="1" as="geometry">
            <mxPoint x="520" y="350" as="sourcePoint" />
            <mxPoint x="550" y="310" as="targetPoint" />
          </mxGeometry>
        </mxCell>
        <mxCell id="gh2Hhw6dgfaFf8n6rs0p-296" value="Masuk kedalam&#xa;Sistem" style="text;spacingTop=-5;fontSize=6;align=center;verticalAlign=middle;points=[]" vertex="1" parent="1">
          <mxGeometry x="495.83666666666636" y="350.0044444444443" width="30" height="19.999999999999886" as="geometry" />
        </mxCell>
        <mxCell id="gh2Hhw6dgfaFf8n6rs0p-297" value="Mengkonfirmasi &#xa;Pemesanan" style="text;spacingTop=-5;fontSize=6;align=center;verticalAlign=middle;points=[]" vertex="1" parent="1">
          <mxGeometry x="525.8366666666664" y="290.9744444444443" width="30" height="19.999999999999886" as="geometry" />
        </mxCell>
        <mxCell id="gh2Hhw6dgfaFf8n6rs0p-298" value="Menambahkan dan &#xa;mengedit data stan" style="text;spacingTop=-5;fontSize=6;align=center;verticalAlign=middle;points=[]" vertex="1" parent="1">
          <mxGeometry x="409.58666666666636" y="350.0044444444443" width="30" height="19.999999999999886" as="geometry" />
        </mxCell>
        <mxCell id="gh2Hhw6dgfaFf8n6rs0p-299" value="Mengecek rincian &#xa;pendapatan" style="text;spacingTop=-5;fontSize=6;align=center;verticalAlign=middle;points=[]" vertex="1" parent="1">
          <mxGeometry x="465.83666666666636" y="290.0044444444443" width="30" height="19.999999999999886" as="geometry" />
        </mxCell>
      </root>
    </mxGraphModel>
  </diagram>
</mxfile>
